<?xml version="1.0" encoding="UTF-8"?>
<svg version="1.1" xmlns="http://www.w3.org/2000/svg" width="300" height="300">
<path d="M0 0 C0.99 0.4640625 0.99 0.4640625 2 0.9375 C5.70476015 2.24960255 9.09263991 2.60264135 13 3 C13 3.66 13 4.32 13 5 C14.258125 5.185625 15.51625 5.37125 16.8125 5.5625 C32.98869162 8.90224743 47.04361204 16.3693828 61.03320312 24.89599609 C63.10297199 26.1391052 63.10297199 26.1391052 66 27 C66 27.66 66 28.32 66 29 C66.66 29 67.32 29 68 29 C68.0825 29.61875 68.165 30.2375 68.25 30.875 C68.78301356 33.1518114 68.78301356 33.1518114 70.83984375 33.96875 C71.55269531 34.3090625 72.26554688 34.649375 73 35 C97.63075641 53.02810609 111.37962438 85.00902291 117 114 C117.18433594 114.91523438 117.36867188 115.83046875 117.55859375 116.7734375 C118.21411934 121.5651555 118.41273154 126.35839262 118.625 131.1875 C118.70234375 132.65413086 118.70234375 132.65413086 118.78125 134.15039062 C119.27291669 145.08997448 118.09890834 154.75464063 115 165.25 C112.80013936 172.58875505 112.80013936 172.58875505 111.4375 180.109375 C111.293125 181.06328125 111.14875 182.0171875 111 183 C110.34 183.33 109.68 183.66 109 184 C108.2991543 185.62317077 107.66652298 187.27586698 107.0625 188.9375 C102.9994396 199.07684893 97.0224078 209.59647972 90 218 C89.34 218 88.68 218 88 218 C87.73445312 218.58136719 87.46890625 219.16273438 87.1953125 219.76171875 C83.47738516 226.72371995 77.00124169 232.04245252 71 237 C69.83984375 237.97453125 69.83984375 237.97453125 68.65625 238.96875 C43.97269599 259.2780033 8.30457809 271.95516016 -24 270 C-25.67597248 269.35708597 -27.34200305 268.687945 -29 268 C-31.62663836 267.49251785 -34.23411262 267.03723608 -36.875 266.625 C-47.87809414 264.79254282 -58.64527605 262.22641794 -69 258 C-69.33 258.66 -69.66 259.32 -70 260 C-70.309375 258.824375 -70.309375 258.824375 -70.625 257.625 C-72.49316478 254.05850361 -74.22944533 254.1830962 -78 253 C-105.75099556 239.14418378 -129.65369992 212.40389125 -140.27636719 183.1953125 C-145.4738758 167.42743212 -148.2527156 152.3177807 -148.3125 135.75 C-148.31611542 134.98666351 -148.31973083 134.22332703 -148.32345581 133.43685913 C-148.34318301 123.0988548 -147.85937862 113.42261208 -144.97265625 103.42578125 C-143.91035974 100.04224336 -143.91035974 100.04224336 -143.62109375 96.60546875 C-142.82239106 91.96897449 -141.05957323 88.20283314 -139 84 C-138.63616211 83.25057129 -138.27232422 82.50114258 -137.89746094 81.72900391 C-132.48598889 70.79087209 -126.56392969 60.58319659 -119 51 C-118.53867676 50.40848145 -118.07735352 49.81696289 -117.60205078 49.20751953 C-103.35526617 31.13972123 -83.5799626 18.19718331 -62.15625 9.8984375 C-59.84015024 9.09398344 -59.84015024 9.09398344 -58 7 C-56.00827818 6.30899447 -54.00838196 5.64097297 -52 5 C-51.67 4.67 -51.34 4.34 -51 4 C-48.91734618 3.39535857 -47.17384564 3 -45 3 C-45 3.66 -45 4.32 -45 5 C-43.80375 4.690625 -42.6075 4.38125 -41.375 4.0625 C-35.54463866 2.55464793 -29.9090888 1.86840377 -23.88671875 1.71875 C-22.54361944 1.68100202 -21.20052049 1.64324124 -19.85742188 1.60546875 C-17.75938916 1.55159066 -15.66132229 1.49935616 -13.56323242 1.44775391 C-11.52509977 1.3962035 -9.48718511 1.33894869 -7.44921875 1.28125 C-6.23580811 1.25095703 -5.02239746 1.22066406 -3.7722168 1.18945312 C-1.09231714 1.31140052 -1.09231714 1.31140052 0 0 Z M-54 33 C-55.16917969 33.42023437 -56.33835937 33.84046875 -57.54296875 34.2734375 C-83.15453929 44.2865487 -103.56030329 65.17106747 -115.0703125 89.86962891 C-117.63645596 95.74992508 -119.44766836 101.7844579 -121 108 C-121.47759766 109.85625 -121.47759766 109.85625 -121.96484375 111.75 C-125.5836323 128.02621026 -127.45841361 150.88518263 -119 166 C-118.97421875 165.08605469 -118.9484375 164.17210937 -118.921875 163.23046875 C-118.1923071 144.24462328 -114.89126723 125.50334646 -111 106.9375 C-110.644823 105.21793091 -110.644823 105.21793091 -110.2824707 103.46362305 C-106.56397143 86.36155263 -106.56397143 86.36155263 -101.625 81.8125 C-98.19241615 80.75003357 -96.42766558 80.88655449 -93 82 C-91.42048857 84.43732225 -90.3870413 86.47042728 -89.3125 89.125 C-88.63323741 90.67783992 -87.95214631 92.22988087 -87.26953125 93.78125 C-86.90811035 94.62042969 -86.54668945 95.45960937 -86.17431641 96.32421875 C-84.05958493 101.14281688 -81.77530782 105.88064141 -79.5 110.625 C-79.02876709 111.61000488 -78.55753418 112.59500977 -78.07202148 113.60986328 C-67.47487613 135.65677674 -55.29258226 158.55556726 -39 177 C-38.67 177 -38.34 177 -38 177 C-37.9906543 176.33097656 -37.98130859 175.66195312 -37.97167969 174.97265625 C-37.50781376 147.86833346 -35.89751323 120.29155989 -30.4375 93.6875 C-30.23995117 92.72223389 -30.04240234 91.75696777 -29.83886719 90.76245117 C-28.18851146 83.45208222 -28.18851146 83.45208222 -25 81 C-21.4375 80.625 -21.4375 80.625 -18 81 C-12.90869775 88.63695337 -16.78098859 100.62174172 -18.02334595 109.27587891 C-21.74387617 135.45229355 -23.28239025 161.32098891 -23.01489258 187.75195312 C-23.00806458 188.54487259 -23.00123657 189.33779205 -22.99420166 190.15473938 C-22.9801864 191.64729533 -22.96159253 193.13981769 -22.93768311 194.63224792 C-22.90786772 197.71783683 -23.01522074 200.04566222 -24 203 C-30.93905192 204.31602709 -30.93905192 204.31602709 -34.9375 203.125 C-51.2014632 191.83980105 -61.53557807 172.01241643 -71.54248047 155.41113281 C-72.85999985 153.23159824 -74.19337457 151.0630857 -75.53515625 148.8984375 C-80.18746194 141.34685471 -84.30770978 133.63757425 -88.17578125 125.65625 C-89.41982734 123.10449153 -90.75765813 120.63830842 -92.18359375 118.18359375 C-93.63434442 115.64088021 -94.54499711 113.84376806 -95 111 C-95.66 111 -96.32 111 -97 111 C-97.6378712 114.12250489 -98.25756144 117.24839624 -98.875 120.375 C-99.13603516 121.65117187 -99.13603516 121.65117187 -99.40234375 122.953125 C-102.55610804 139.07236472 -103.4196713 155.37485856 -104.125 171.75 C-104.21173592 173.64064817 -104.29897344 175.5312734 -104.38671875 177.421875 C-104.46919866 179.23435464 -104.55124636 181.04685401 -104.6328125 182.859375 C-104.67028595 183.69063904 -104.7077594 184.52190308 -104.74636841 185.37835693 C-104.84111741 187.58534096 -104.92373675 189.79230977 -105 192 C-105.04092773 193.1240625 -105.08185547 194.248125 -105.12402344 195.40625 C-104.75190793 203.18844514 -93.9234789 211.46221209 -88.5859375 216.66015625 C-75.24511806 228.73138109 -60.1361886 236.1727392 -43 241 C-41.82308594 241.34160156 -40.64617187 241.68320312 -39.43359375 242.03515625 C-22.81785898 246.09930071 -3.41502374 245.74971752 13 241 C14.258125 240.63648438 15.51625 240.27296875 16.8125 239.8984375 C29.91759442 235.90032896 45.74666944 229.56248343 55 219 C55.28875 218.34 55.5775 217.68 55.875 217 C57.37569012 214.33210645 59.3928206 213.50941965 62 212 C62 211.34 62 210.68 62 210 C62.66 210 63.32 210 64 210 C65.81067374 208.28668011 65.81067374 208.28668011 67.625 206.125 C68.25664062 205.40570313 68.88828125 204.68640625 69.5390625 203.9453125 C71.20017123 202.13893067 71.20017123 202.13893067 71 200 C71.66 200 72.32 200 73 200 C73.33 198.68 73.66 197.36 74 196 C74.66 196 75.32 196 76 196 C81.86992602 186.4158528 86.83838733 176.94807104 89.50390625 165.9140625 C90 164 90 164 90.9921875 161.5546875 C99.18428264 140.78867888 94.28745801 113.1229415 85.953125 93.140625 C85.63859375 92.43421875 85.3240625 91.7278125 85 91 C84.01 91.495 84.01 91.495 83 92 C82.03256221 95.83402458 81.77790596 99.82288663 81.375 103.75 C81.2402124 105.04719971 81.1054248 106.34439941 80.96655273 107.6809082 C80.02320949 117.95011163 79.90537924 128.18853257 79.94921875 138.49609375 C79.95175407 139.17711025 79.9542894 139.85812675 79.95690155 140.55978012 C79.98589786 147.53082475 80.04540892 154.50057485 80.16572475 161.47066402 C80.21867486 164.7654356 80.2488482 168.06047738 80.28515625 171.35546875 C80.31534348 172.5709288 80.3455307 173.78638885 80.37663269 175.03868103 C80.38648697 176.16053299 80.39634125 177.28238495 80.40649414 178.43823242 C80.4244252 179.41950607 80.44235626 180.40077972 80.46083069 181.41178894 C79.86451574 184.76093425 78.64037017 185.92415111 76 188 C72.14889199 188.78772664 69.60071243 188.0384984 66.25 186.1875 C55.60579386 178.90992724 48.48913105 167.38635285 41.32177734 156.92089844 C39.61927795 154.44670833 37.87099324 152.00611967 36.125 149.5625 C33.42204619 145.69369382 30.96306139 141.72152715 28.57421875 137.65234375 C26.89179028 134.81768139 25.13342646 132.03810298 23.375 129.25 C18.97223827 122.13390836 15.00472148 114.79207909 11.03662109 107.42675781 C10.54242676 106.50991211 10.04823242 105.59306641 9.5390625 104.6484375 C8.87704834 103.41359619 8.87704834 103.41359619 8.20166016 102.15380859 C7.21628246 100.38765622 6.12184785 98.68277177 5 97 C2.98021392 102.29865959 2.19566025 107.54108961 1.4375 113.125 C1.31181641 113.99898438 1.18613281 114.87296875 1.05664062 115.7734375 C-0.71155937 128.43782278 -1.2162462 141.04755665 -1.5 153.8125 C-1.61936868 159.1456027 -1.75156528 164.47762497 -1.92919922 169.80914307 C-1.97639461 171.26955548 -2.01838839 172.73014528 -2.05517578 174.19085693 C-2.1111153 176.25738736 -2.1926362 178.32136378 -2.28125 180.38671875 C-2.32314453 181.56838623 -2.36503906 182.75005371 -2.40820312 183.9675293 C-3.10906506 187.55886843 -4.09663679 188.82750419 -7 191 C-9.8683249 190.93004086 -11.37000815 190.52432774 -13.5793457 188.68554688 C-18.48029647 182.87077387 -17.3473954 172.60955896 -17.3125 165.5 C-17.30512817 163.68314697 -17.30512817 163.68314697 -17.29760742 161.82958984 C-17.04356322 141.35232404 -14.85867061 121.01123029 -11.5625 100.8125 C-11.36954346 99.62672363 -11.17658691 98.44094727 -10.9777832 97.21923828 C-6.90087469 73.73504859 -6.90087469 73.73504859 0 68 C3.125 67.5 3.125 67.5 6 68 C8.5971396 70.11513681 9.83225285 72.38900373 11.20703125 75.41015625 C11.62146484 76.30460449 12.03589844 77.19905273 12.46289062 78.12060547 C13.13094727 79.57684326 13.13094727 79.57684326 13.8125 81.0625 C22.90255787 100.42975017 32.81634603 119.38502315 45 137 C45.43296387 137.62825684 45.86592773 138.25651367 46.31201172 138.90380859 C51.55900294 146.47583733 56.89956192 154.08723204 63 161 C63.33 161 63.66 161 64 161 C64.01981934 160.15219971 64.03963867 159.30439941 64.06005859 158.4309082 C65.69541945 91.25913856 65.69541945 91.25913856 71.63720703 70.80664062 C72.24600558 68.87220891 72.24600558 68.87220891 70.70703125 67.03515625 C70.08183594 66.38417969 69.45664063 65.73320313 68.8125 65.0625 C66.81732133 62.9497108 64.92637828 60.90262426 63.171875 58.58203125 C60.54876211 55.46354632 57.65693551 53.10111823 54.4375 50.625 C53.81182129 50.14313232 53.18614258 49.66126465 52.54150391 49.16479492 C50.7034613 47.7638564 48.85474758 46.37871822 47 45 C46.12214844 44.34386719 45.24429688 43.68773438 44.33984375 43.01171875 C16.13448038 23.56745081 -22.4449775 21.20109335 -54 33 Z " fill="#358CC9" transform="translate(165,15)"/>
<path d="M0 0 C0.99 0 1.98 0 3 0 C3 0.66 3 1.32 3 2 C3.66 2 4.32 2 5 2 C5.0825 2.61875 5.165 3.2375 5.25 3.875 C5.78301356 6.1518114 5.78301356 6.1518114 7.83984375 6.96875 C8.55269531 7.3090625 9.26554687 7.649375 10 8 C34.63075641 26.02810609 48.37962438 58.00902291 54 87 C54.18433594 87.91523438 54.36867188 88.83046875 54.55859375 89.7734375 C55.21411934 94.5651555 55.41273154 99.35839262 55.625 104.1875 C55.6765625 105.16525391 55.728125 106.14300781 55.78125 107.15039062 C56.27291669 118.08997448 55.09890834 127.75464063 52 138.25 C49.80013936 145.58875505 49.80013936 145.58875505 48.4375 153.109375 C48.2209375 154.54023438 48.2209375 154.54023438 48 156 C47.34 156.33 46.68 156.66 46 157 C45.2991543 158.62317077 44.66652298 160.27586698 44.0625 161.9375 C39.9994396 172.07684893 34.0224078 182.59647972 27 191 C26.34 191 25.68 191 25 191 C24.73445313 191.58136719 24.46890625 192.16273438 24.1953125 192.76171875 C20.47738516 199.72371995 14.00124169 205.04245252 8 210 C6.83984375 210.97453125 6.83984375 210.97453125 5.65625 211.96875 C-11.95147915 226.45612209 -31.50106669 234.83743707 -53.75 239.25 C-54.6255957 239.42563477 -55.50119141 239.60126953 -56.40332031 239.78222656 C-61.82206936 240.79708876 -67.49307168 241.82517969 -73 241 C-75.75 238.75 -75.75 238.75 -78 236 C-81.51327717 232.9136836 -85.02719872 230.86158878 -89.25 228.875 C-94.88995215 226.22009569 -94.88995215 226.22009569 -96 224 C-96.04022391 221.6670134 -96.04320247 219.33293334 -96 217 C-92.36032137 216.15154183 -89.08319249 215.91397801 -85.3515625 216.0078125 C-73.16662304 216.22314548 -61.79461674 216.4127942 -50 213 C-48.741875 212.63648438 -47.48375 212.27296875 -46.1875 211.8984375 C-31.17484963 207.31837088 -14.86717215 200.43510932 -6 187 C-3.1875 185.5625 -3.1875 185.5625 -1 185 C-1 184.34 -1 183.68 -1 183 C-0.34 183 0.32 183 1 183 C1.268125 182.360625 1.53625 181.72125 1.8125 181.0625 C3 179 3 179 6 178 C7.21869929 175.49552484 7.21869929 175.49552484 8 173 C8.66 173 9.32 173 10 173 C10.33 171.68 10.66 170.36 11 169 C11.66 169 12.32 169 13 169 C13.25910156 168.31421875 13.51820313 167.6284375 13.78515625 166.921875 C15.16748246 163.59718046 16.78480826 160.4487582 18.4375 157.25 C21.43559844 151.35729235 23.95573689 145.52514015 25.4453125 139.0703125 C26 137 26 137 26.9921875 134.5546875 C32.67397617 120.15201389 31.2382512 101.21455626 28.3125 86.3125 C28.16409668 85.54873047 28.01569336 84.78496094 27.86279297 83.99804688 C26.39115635 77.34043764 23.74241465 71.22350235 21 65 C18.72590571 80.50537164 17.86977726 95.8048412 17.9765625 111.46484375 C17.9805732 112.14450132 17.98458389 112.8241589 17.98871613 113.52441216 C18.0318218 120.48001569 18.10548665 127.4339482 18.24842262 134.3882494 C18.31056259 137.67786403 18.34307623 140.96786179 18.3828125 144.2578125 C18.41815094 145.4681163 18.45348938 146.6784201 18.48989868 147.92539978 C18.57180163 157.16860765 18.57180163 157.16860765 15.65185547 160.25732422 C12.28905763 162.46719818 10.95893422 162.77626161 7 162 C-6.18095914 156.71600316 -15.0415569 141.12623125 -22.69433594 129.90478516 C-24.38823238 127.4336221 -26.13257159 124.999597 -27.875 122.5625 C-30.57964291 118.69127617 -33.04015526 114.71674458 -35.4296875 110.64453125 C-36.49211132 108.85532496 -37.58163556 107.08198074 -38.6953125 105.32421875 C-45.72628745 94.21880852 -51.81122061 82.58837606 -58 71 C-62.1304782 92.01036579 -63.26584227 112.82496645 -63.70471191 134.1865387 C-63.76915577 137.08409378 -63.85210816 139.98089982 -63.94073486 142.87780762 C-63.9804575 144.30021358 -64.01207041 145.72286771 -64.03582764 147.14562988 C-64.0725156 149.19483879 -64.14017841 151.24093103 -64.21484375 153.2890625 C-64.24570068 154.4642041 -64.27655762 155.6393457 -64.30834961 156.85009766 C-65.19537849 160.88978939 -66.80627349 162.45039393 -70 165 C-73.18282218 165.07762981 -74.5838491 164.28536062 -77.1875 162.5 C-82.05642509 155.78424126 -81.35146608 146.43891483 -81.3125 138.5 C-81.30758545 137.28876465 -81.3026709 136.0775293 -81.29760742 134.82958984 C-81.04356322 114.35232404 -78.85867061 94.01123029 -75.5625 73.8125 C-75.36954346 72.62672363 -75.17658691 71.44094727 -74.9777832 70.21923828 C-71.04072048 47.54060137 -71.04072048 47.54060137 -65 41 C-62.15916359 39.57958179 -60.14522722 39.68547728 -57 40 C-52.29287561 43.45253958 -50.46522401 48.97081194 -48.125 54.125 C-39.08534059 73.48287338 -29.17542453 92.41531307 -17 110 C-16.56171875 110.63357422 -16.1234375 111.26714844 -15.671875 111.91992188 C-10.66063454 119.1198953 -5.41162253 126.09698544 0 133 C0.01981934 132.18249268 0.03963867 131.36498535 0.06005859 130.52270508 C1.77371994 62.59638846 1.77371994 62.59638846 7.68139648 43.83618164 C7.78653564 43.2302417 7.8916748 42.62430176 8 42 C7.01 40.7934375 7.01 40.7934375 6 39.5625 C4 37 4 37 4.25 34.6875 C4.62125 33.3571875 4.62125 33.3571875 5 32 C5.62438968 26.27642796 4.57081942 22.51264034 2.5 17.125 C0.22304475 11.17284656 -0.65618618 6.32855118 0 0 Z " fill="#3786C5" transform="translate(228,42)"/>
<path d="M0 0 C0.40919285 7.96716859 -0.62249603 14.64280159 -2.9375 22.25 C-3.492207 24.12905389 -4.04308369 26.00924338 -4.58984375 27.890625 C-4.84491699 28.76525391 -5.09999023 29.63988281 -5.36279297 30.54101562 C-5.93418324 32.74601287 -6.30448009 34.85047776 -6.56640625 37.109375 C-6.70949219 38.06328125 -6.85257813 39.0171875 -7 40 C-7.99 40.495 -7.99 40.495 -9 41 C-9.7008457 42.62317077 -10.33347702 44.27586698 -10.9375 45.9375 C-15.0005604 56.07684893 -20.9775922 66.59647972 -28 75 C-28.66 75 -29.32 75 -30 75 C-30.26554687 75.58136719 -30.53109375 76.16273438 -30.8046875 76.76171875 C-34.52261484 83.72371995 -40.99875831 89.04245252 -47 94 C-48.16015625 94.97453125 -48.16015625 94.97453125 -49.34375 95.96875 C-66.95147915 110.45612209 -86.50106669 118.83743707 -108.75 123.25 C-109.6255957 123.42563477 -110.50119141 123.60126953 -111.40332031 123.78222656 C-116.82206936 124.79708876 -122.49307168 125.82517969 -128 125 C-130.75 122.75 -130.75 122.75 -133 120 C-136.51327717 116.9136836 -140.02719872 114.86158878 -144.25 112.875 C-149.88995215 110.22009569 -149.88995215 110.22009569 -151 108 C-151.04022391 105.6670134 -151.04320247 103.33293334 -151 101 C-147.36032137 100.15154183 -144.08319249 99.91397801 -140.3515625 100.0078125 C-128.16662304 100.22314548 -116.79461674 100.4127942 -105 97 C-103.741875 96.63648438 -102.48375 96.27296875 -101.1875 95.8984375 C-86.17484963 91.31837088 -69.86717215 84.43510932 -61 71 C-58.1875 69.5625 -58.1875 69.5625 -56 69 C-56 68.34 -56 67.68 -56 67 C-55.34 67 -54.68 67 -54 67 C-53.731875 66.360625 -53.46375 65.72125 -53.1875 65.0625 C-52 63 -52 63 -49 62 C-47.78130071 59.49552484 -47.78130071 59.49552484 -47 57 C-46.34 57 -45.68 57 -45 57 C-44.67 55.68 -44.34 54.36 -44 53 C-43.34 53 -42.68 53 -42 53 C-41.74089844 52.31421875 -41.48179687 51.6284375 -41.21484375 50.921875 C-39.83251754 47.59718046 -38.21519174 44.4487582 -36.5625 41.25 C-33.20731859 34.6554523 -30.75337621 28.17290268 -29 21 C-27.40091797 20.70996094 -27.40091797 20.70996094 -25.76953125 20.4140625 C-22.050357 19.35197648 -20.5720154 17.608231 -18.63867188 14.203125 C-18.32478516 13.59984375 -18.01089844 12.9965625 -17.6875 12.375 C-16.50620124 10.2089048 -15.2902677 8.10595418 -14 6 C-13.34 6 -12.68 6 -12 6 C-12 5.34 -12 4.68 -12 4 C-7.54425855 1.20424066 -5.30378074 -0.12218933 0 0 Z " fill="#0F3C76" transform="translate(283,158)"/>
<path d="M0 0 C0.40919285 7.96716859 -0.62249603 14.64280159 -2.9375 22.25 C-3.492207 24.12905389 -4.04308369 26.00924338 -4.58984375 27.890625 C-4.97245361 29.20256836 -4.97245361 29.20256836 -5.36279297 30.54101562 C-5.93418324 32.74601287 -6.30448009 34.85047776 -6.56640625 37.109375 C-6.70949219 38.06328125 -6.85257812 39.0171875 -7 40 C-7.99 40.495 -7.99 40.495 -9 41 C-9.72235379 42.66442353 -10.37625533 44.35866806 -11 46.0625 C-13.23482488 51.52760274 -15.8297905 56.65377898 -18.8125 61.75 C-19.20244141 62.46551025 -19.59238281 63.18102051 -19.99414062 63.91821289 C-21.20241142 65.91424317 -22.23302968 67.47254081 -24 69 C-26.76535714 69.49349062 -29.16056958 69.19543769 -32 69 C-34.63155529 70.14293982 -34.63155529 70.14293982 -36.75 71.875 C-42.02104485 75.79984275 -45.21431613 77.59523543 -52 77 C-53.68029994 76.02308143 -55.34928604 75.02611949 -57 74 C-59.38222923 74.27225477 -60.86246601 74.93123301 -63 76 C-62.61402985 73.20171644 -62.19863427 72.1794116 -60.0625 70.25 C-58 69 -58 69 -56 69 C-56 68.34 -56 67.68 -56 67 C-55.34 67 -54.68 67 -54 67 C-53.731875 66.360625 -53.46375 65.72125 -53.1875 65.0625 C-52 63 -52 63 -49 62 C-47.78130071 59.49552484 -47.78130071 59.49552484 -47 57 C-46.34 57 -45.68 57 -45 57 C-44.67 55.68 -44.34 54.36 -44 53 C-43.34 53 -42.68 53 -42 53 C-41.74089844 52.31421875 -41.48179687 51.6284375 -41.21484375 50.921875 C-39.83251754 47.59718046 -38.21519174 44.4487582 -36.5625 41.25 C-33.20731859 34.6554523 -30.75337621 28.17290268 -29 21 C-27.40091797 20.70996094 -27.40091797 20.70996094 -25.76953125 20.4140625 C-22.050357 19.35197648 -20.5720154 17.608231 -18.63867188 14.203125 C-18.32478516 13.59984375 -18.01089844 12.9965625 -17.6875 12.375 C-16.50620124 10.2089048 -15.2902677 8.10595418 -14 6 C-13.34 6 -12.68 6 -12 6 C-12 5.34 -12 4.68 -12 4 C-7.54425855 1.20424066 -5.30378074 -0.12218933 0 0 Z " fill="#205A97" transform="translate(283,158)"/>
<path d="M0 0 C2.625 0.375 2.625 0.375 5 1 C12.20769411 21.27737006 15.48806603 39.48180305 16 61 C14.01432292 61.48421224 12.02864583 61.96842448 10.04296875 62.45263672 C7.60361832 63.10620073 5.31216525 63.98842771 3 65 C3 65.66 3 66.32 3 67 C2.34 67 1.68 67 1 67 C0.72671875 67.72703125 0.4534375 68.4540625 0.171875 69.203125 C-0.95649763 71.89617434 -2.20528386 74.2751322 -3.75 76.75 C-4.21921875 77.52859375 -4.6884375 78.3071875 -5.171875 79.109375 C-7.6076893 81.628465 -9.58196342 81.71357235 -13 82 C-12.7834375 81.03964844 -12.566875 80.07929688 -12.34375 79.08984375 C-10.51940118 70.36761582 -9.69904138 61.91643573 -9.6875 53 C-9.67976563 51.56901978 -9.67976563 51.56901978 -9.671875 50.10913086 C-9.72353718 44.82528867 -10.23582634 40.00096732 -11.5612793 34.88110352 C-12.10316028 32.5576795 -12.15325487 30.3754505 -12 28 C-10.68 27.67 -9.36 27.34 -8 27 C-7.81824219 25.69804688 -7.63648438 24.39609375 -7.44921875 23.0546875 C-7.19585282 21.32804563 -6.9419164 19.6014874 -6.6875 17.875 C-6.56955078 17.0190625 -6.45160156 16.163125 -6.33007812 15.28125 C-5.44771512 9.39882997 -4.35322403 4.35322403 0 0 Z " fill="#3A82C0" transform="translate(268,97)"/>
<path d="M0 0 C1.2890625 1.4609375 1.2890625 1.4609375 2.625 3.375 C3.07101563 4.00148438 3.51703125 4.62796875 3.9765625 5.2734375 C5 7 5 7 5 9 C9.91442612 11.54515542 14.9039931 11.44153121 20.3125 11.625 C21.24384766 11.66367187 22.17519531 11.70234375 23.13476562 11.7421875 C25.42298407 11.83606313 27.71120295 11.92174509 30 12 C29 15 29 15 25.66015625 16.8671875 C10.25574005 23.8375739 -7.93633658 29.16265442 -25 28 C-27.75 25.75 -27.75 25.75 -30 23 C-33.51327717 19.9136836 -37.02719872 17.86158878 -41.25 15.875 C-46.88995215 13.22009569 -46.88995215 13.22009569 -48 11 C-48.04022391 8.6670134 -48.04320247 6.33293334 -48 4 C-44.36032137 3.15154183 -41.08319249 2.91397801 -37.3515625 3.0078125 C-36.27003906 3.02650391 -35.18851563 3.04519531 -34.07421875 3.06445312 C-32.93597656 3.08443359 -31.79773438 3.10441406 -30.625 3.125 C-20.17729161 3.23515897 -10.08152749 0 0 0 Z " fill="#062F69" transform="translate(180,255)"/>
<path d="M0 0 C0.66 0.99 1.32 1.98 2 3 C1.01 3 0.02 3 -1 3 C-0.67 2.01 -0.34 1.02 0 0 Z M-3 2 C-2.67 2.66 -2.34 3.32 -2 4 C2.13665136 5.66682717 6.08852108 6.36032746 10.5 6.875 C15.78150976 7.63982524 19.0180629 8.44854259 23 12 C25.1519437 15.22791555 25.20086443 16.28400809 25 20 C23.68 20.33 22.36 20.66 21 21 C20.47277344 20.21109375 19.94554687 19.4221875 19.40234375 18.609375 C16.49577103 15.45231716 14.7293828 15.04002171 10.5625 14.25 C9.45003906 14.02828125 8.33757812 13.8065625 7.19140625 13.578125 C5.24913248 13.22628104 3.30425659 12.88798223 1.35546875 12.57421875 C-1.22879775 11.94422343 -3.01867696 10.99753028 -5.25 9.5625 C-5.93578125 9.13066406 -6.6215625 8.69882812 -7.328125 8.25390625 C-9 7 -9 7 -10 5 C-7.69 4.01 -5.38 3.02 -3 2 Z " fill="#65B0E7" transform="translate(115,18)"/>
<path d="M0 0 C0 2.97 0 5.94 0 9 C-0.99 9 -1.98 9 -3 9 C-3 8.01 -3 7.02 -3 6 C-7.89570414 8.38216731 -10.14446827 11.59814688 -13.0625 16 C-19.38263444 25.44632652 -19.38263444 25.44632652 -25.25 26.6875 C-26.1575 26.790625 -27.065 26.89375 -28 27 C-28 26.34 -28 25.68 -28 25 C-28.66 25 -29.32 25 -30 25 C-29.67 23.68 -29.34 22.36 -29 21 C-27.93394531 20.80664062 -26.86789062 20.61328125 -25.76953125 20.4140625 C-22.050357 19.35197648 -20.5720154 17.608231 -18.63867188 14.203125 C-18.32478516 13.59984375 -18.01089844 12.9965625 -17.6875 12.375 C-16.50620124 10.2089048 -15.2902677 8.10595418 -14 6 C-13.34 6 -12.68 6 -12 6 C-12 5.34 -12 4.68 -12 4 C-4.71428571 -0.57142857 -4.71428571 -0.57142857 0 0 Z " fill="#105292" transform="translate(283,158)"/>
<path d="M0 0 C5.24468085 0 5.24468085 0 8 1 C9.37699583 2.90114264 10.13838669 4.78317316 11.015625 6.95703125 C12.2661276 9.55232038 14.13819637 10.88113808 16.40625 12.59375 C20.62433309 16.31558802 23.78577401 20.96485312 24.375 26.5625 C24.25125 27.366875 24.1275 28.17125 24 29 C22.125 29.625 22.125 29.625 20 30 C18 28 18 28 16.875 24.8125 C15.19037843 20.65304777 12.3689789 18.35970259 8.9375 15.578125 C5.81330918 13.03342118 3.45779559 10.81269616 2 7 C1.875 4.25 1.875 4.25 2 2 C1.34 2 0.68 2 0 2 C0 1.34 0 0.68 0 0 Z " fill="#4C96D1" transform="translate(170,17)"/>
<path d="M0 0 C-0.50603992 2.16874252 -0.99983813 3.99967627 -2 6 C-2.99 6.0825 -3.98 6.165 -5 6.25 C-9.42464217 6.7335176 -12.34570903 8.96750191 -15.88671875 11.52734375 C-20.39488944 14.66889708 -23.41749776 15.48969318 -29 15 C-30.68029994 14.02308143 -32.34928604 13.02611949 -34 12 C-36.38222923 12.27225477 -37.86246601 12.93123301 -40 14 C-39.61402985 11.20171644 -39.19863427 10.1794116 -37.0625 8.25 C-35 7 -35 7 -33 7 C-33 6.34 -33 5.68 -33 5 C-32.34 5 -31.68 5 -31 5 C-30.01 6.485 -30.01 6.485 -29 8 C-23.66863457 8.61515755 -20.59245708 7.61139716 -16 5 C-5.57403779 -0.73342603 -5.57403779 -0.73342603 0 0 Z " fill="#0860A4" transform="translate(260,220)"/>
<path d="M0 0 C2.5 2 2.5 2 4 4 C3.34 5.32 2.68 6.64 2 8 C1.43152344 7.95359375 0.86304687 7.9071875 0.27734375 7.859375 C-5.41404117 7.59333363 -9.44766251 8.37499052 -14 12 C-15.84175956 13.74649614 -17.60850859 15.54526741 -19.36328125 17.37890625 C-21.38850113 19.38479229 -23.40681039 20.81454189 -26 22 C-26.66 21.67 -27.32 21.34 -28 21 C-25.64583333 13.44188596 -25.64583333 13.44188596 -22.625 11.375 C-21.325625 10.694375 -21.325625 10.694375 -20 10 C-18.78783319 8.50074105 -17.57595405 7.00123077 -16.37109375 5.49609375 C-11.74147512 0.44440163 -6.65475513 -0.87275477 0 0 Z " fill="#8FD0F8" transform="translate(49,89)"/>
<path d="M0 0 C2 2 2 2 2.1953125 4.1640625 C2.17210937 4.97617187 2.14890625 5.78828125 2.125 6.625 C2.10695312 7.44226563 2.08890625 8.25953125 2.0703125 9.1015625 C2.03550781 10.04128906 2.03550781 10.04128906 2 11 C3.0828125 11.42152344 3.0828125 11.42152344 4.1875 11.8515625 C11.69025285 14.91518658 19.37992793 18.06989189 24 25 C24.99 25.66 25.98 26.32 27 27 C24.75067773 27.1954625 22.50049858 27.38108226 20.25 27.5625 C18.99703125 27.66691406 17.7440625 27.77132813 16.453125 27.87890625 C13.60547636 27.97876723 11.65713933 27.90584295 9 27 C9 26.67 9 26.34 9 26 C11.31 26 13.62 26 16 26 C16 25.01 16 24.02 16 23 C15.34 22.7525 14.68 22.505 14 22.25 C7.77266042 19.65527517 2.39061566 17.35106283 -2 12 C-2 11.01 -2 10.02 -2 9 C-2.66 9 -3.32 9 -4 9 C-4 6.36 -4 3.72 -4 1 C-2.125 0.375 -2.125 0.375 0 0 Z " fill="#3398D6" transform="translate(131,257)"/>
<path d="M0 0 C0.66 0 1.32 0 2 0 C2 2.31 2 4.62 2 7 C1.34 7 0.68 7 0 7 C-0.03738281 7.99 -0.07476562 8.98 -0.11328125 10 C-0.88418062 26.77290135 -0.88418062 26.77290135 -5.53125 31.5859375 C-7.1875 33 -7.1875 33 -10 35 C-12 33 -12 33 -12.125 30.375 C-12.08375 29.59125 -12.0425 28.8075 -12 28 C-10.68 27.67 -9.36 27.34 -8 27 C-7.81824219 25.69804688 -7.63648438 24.39609375 -7.44921875 23.0546875 C-7.19585282 21.32804563 -6.9419164 19.6014874 -6.6875 17.875 C-6.56955078 17.0190625 -6.45160156 16.163125 -6.33007812 15.28125 C-5.44771512 9.39882997 -4.35322403 4.35322403 0 0 Z " fill="#185491" transform="translate(268,97)"/>
<path d="M0 0 C0.99 0 1.98 0 3 0 C3 0.66 3 1.32 3 2 C3.66 2 4.32 2 5 2 C4.938125 3.00160156 4.87625 4.00320312 4.8125 5.03515625 C5.04976335 10.05228747 6.79679486 13.84410515 8.8671875 18.30664062 C10.96337342 23.10291364 11.35571496 26.75876244 11 32 C10 34.5 10 34.5 9 36 C7.68 35.67 6.36 35.34 5 35 C5.05800781 34.36835937 5.11601562 33.73671875 5.17578125 33.0859375 C5.54973498 25.67096921 3.79950499 20.25764372 1.11328125 13.39453125 C-0.38535338 8.82501021 -0.49230811 4.74803822 0 0 Z " fill="#2669A7" transform="translate(228,42)"/>
<path d="M0 0 C2 2 2 2 3.00390625 4.58203125 C4.71353972 7.15436008 4.71353972 7.15436008 7.05029297 7.46630859 C9.68805333 7.64777486 12.29353043 7.69685587 14.9375 7.6875 C16.73837431 7.70413921 18.53919722 7.72859427 20.33984375 7.76171875 C21.13769287 7.76131592 21.93554199 7.76091309 22.75756836 7.76049805 C25.23258685 8.02484134 26.85742633 8.76478286 29 10 C29 10.66 29 11.32 29 12 C29.66 12.33 30.32 12.66 31 13 C26.91672643 13.0580772 22.83355917 13.09362249 18.75 13.125 C17.01169922 13.15013672 17.01169922 13.15013672 15.23828125 13.17578125 C14.12324219 13.18222656 13.00820312 13.18867188 11.859375 13.1953125 C10.83295898 13.20578613 9.80654297 13.21625977 8.74902344 13.22705078 C5.14076882 12.9290333 2.95999487 12.04841545 0.515625 9.37890625 C0.09796875 8.77949219 -0.3196875 8.18007813 -0.75 7.5625 C-1.17796875 6.96566406 -1.6059375 6.36882812 -2.046875 5.75390625 C-3 4 -3 4 -3 1 C-2.01 0.67 -1.02 0.34 0 0 Z " fill="#0F76BB" transform="translate(183,253)"/>
<path d="M0 0 C2 2 2 2 2.25 5 C2 8 2 8 0 10 C-0.73578017 15.21538298 0.12791562 20.06656322 1.5546875 25.0703125 C2.25125952 28.08879124 2.12856172 30.9145188 2 34 C1.01 34 0.02 34 -1 34 C-3.80146519 31.19853481 -3.95974126 28.07664256 -4.625 24.3125 C-4.7590625 23.61705078 -4.893125 22.92160156 -5.03125 22.20507812 C-7.09120879 10.94887474 -7.09120879 10.94887474 -4.94140625 7.109375 C-4.25884766 6.43648437 -4.25884766 6.43648437 -3.5625 5.75 C-0.83880752 3.20873413 -0.83880752 3.20873413 0 0 Z " fill="#98D2F6" transform="translate(45,192)"/>
<path d="M0 0 C-1.14938237 3.1033324 -2.19330739 4.14362196 -4.91796875 6.16796875 C-8.42806994 9.02467219 -9.55447841 12.34376714 -10.6875 16.625 C-12.92388622 24.6419416 -12.92388622 24.6419416 -16 27 C-18.34211486 19.97365543 -16.82669065 14.14055392 -14.21484375 7.4296875 C-11.0712783 1.1425566 -6.51894252 -0.14171614 0 0 Z " fill="#A4D9F9" transform="translate(36,142)"/>
<path d="M0 0 C2.4375 0.375 2.4375 0.375 5 1 C5.33 1.66 5.66 2.32 6 3 C5.01 3.495 5.01 3.495 4 4 C3.40642341 10.3423252 4.98386804 13.33669253 8.5625 18.25 C10.15072886 20.46743883 11.58964354 22.65627612 13 25 C12.67 25.99 12.34 26.98 12 28 C4.93321278 23.96183587 1.24735018 18.41702466 -2 11 C-2.63814938 7.91724759 -2.51883503 6.17065853 -2 3 C-1.34 2.01 -0.68 1.02 0 0 Z " fill="#6ABBEB" transform="translate(78,237)"/>
<path d="M0 0 C0.66 0.99 1.32 1.98 2 3 C1.01 3 0.02 3 -1 3 C-0.67 2.01 -0.34 1.02 0 0 Z M-2 4 C-0.72769531 4.46019531 -0.72769531 4.46019531 0.5703125 4.9296875 C4.01946287 6.00607383 7.30159223 6.61451318 10.875 7.125 C12.02742188 7.29257812 13.17984375 7.46015625 14.3671875 7.6328125 C15.23601562 7.75398438 16.10484375 7.87515625 17 8 C13.10939581 9.4049404 9.76907638 8.69513239 5.75 8.0625 C3.85507813 7.77052734 3.85507813 7.77052734 1.921875 7.47265625 C0.95765625 7.31667969 -0.0065625 7.16070313 -1 7 C-1.33 6.01 -1.66 5.02 -2 4 Z " fill="#7ABFEE" transform="translate(115,18)"/>
<path d="M0 0 C0.66 0.33 1.32 0.66 2 1 C0.35 2.98 -1.3 4.96 -3 7 C-4.32 6.67 -5.64 6.34 -7 6 C-4.69 4.02 -2.38 2.04 0 0 Z " fill="#7EBAE4" transform="translate(62,49)"/>
<path d="M0 0 C0.66 0 1.32 0 2 0 C2 0.66 2 1.32 2 2 C1.34 2 0.68 2 0 2 C0 1.34 0 0.68 0 0 Z " fill="#B2E2FE" transform="translate(18,116)"/>
<path d="M0 0 C3 1 3 1 3 1 Z " fill="#4AA8E3" transform="translate(127,224)"/>
<path d="" fill="#064A8C" transform="translate(0,0)"/>
</svg>
